<svg width="1200" height="750" viewBox="0 0 1200 750" fill="none" xmlns="http://www.w3.org/2000/svg">
  <rect width="1200" height="750" rx="48" fill="#F8FAFC"/>
  <rect x="54" y="54" width="1092" height="642" rx="36" fill="#0F172A"/>
  <rect x="104" y="118" width="992" height="76" rx="24" fill="#1E293B"/>
  <rect x="140" y="143" width="186" height="26" rx="13" fill="#F59E0B"/>
  <rect x="866" y="143" width="86" height="26" rx="13" fill="#334155"/>
  <rect x="972" y="143" width="86" height="26" rx="13" fill="#334155"/>
  <rect x="104" y="236" width="520" height="370" rx="28" fill="#1E293B"/>
  <rect x="658" y="236" width="438" height="170" rx="28" fill="#111827"/>
  <rect x="658" y="436" width="438" height="170" rx="28" fill="#111827"/>
  <circle cx="318" cy="421" r="116" fill="#F59E0B"/>
  <circle cx="318" cy="421" r="92" fill="#FED7AA"/>
  <path d="M252 469C283.5 414.5 355.5 413 385 469" stroke="#7C2D12" stroke-width="20" stroke-linecap="round"/>
  <circle cx="280" cy="390" r="10" fill="#7C2D12"/>
  <circle cx="357" cy="390" r="10" fill="#7C2D12"/>
  <rect x="694" y="274" width="218" height="24" rx="12" fill="#F8FAFC"/>
  <rect x="694" y="317" width="304" height="18" rx="9" fill="#475569"/>
  <rect x="694" y="472" width="190" height="24" rx="12" fill="#F8FAFC"/>
  <rect x="694" y="515" width="274" height="18" rx="9" fill="#475569"/>
</svg>
